<svg version="1.1" viewBox="0.0 0.0 1024.0 540.0" fill="none" stroke="none" stroke-linecap="square" stroke-miterlimit="10" xmlns:xlink="http://www.w3.org/1999/xlink" xmlns="http://www.w3.org/2000/svg"><clipPath id="p.0"><path d="m0 0l1024.0 0l0 540.0l-1024.0 0l0 -540.0z" clip-rule="nonzero"/></clipPath><g clip-path="url(#p.0)"><path fill="#000000" fill-opacity="0.0" d="m0 0l1024.0 0l0 540.0l-1024.0 0z" fill-rule="evenodd"/><path fill="#e06666" d="m73.63283 166.64807l0 0c-7.488907 -7.488022 -7.489273 -19.628845 -8.163452E-4 -27.117294l0 0l0 0c3.5960846 -3.5960846 8.473511 -5.61644 13.559296 -5.6165924c5.085785 -1.5258789E-4 9.963333 2.0198975 13.559631 5.6157684l233.76215 233.73393c7.4888916 7.4880066 7.489258 19.628815 8.239746E-4 27.11728l0 0l0 0c-7.4884644 7.4884644 -19.630035 7.4888306 -27.118958 8.239746E-4z" fill-rule="evenodd"/><path fill="#e06666" d="m307.39496 139.5742l0 0c7.488922 -7.4880066 19.630493 -7.4876404 27.118958 8.087158E-4l0 0l0 0c3.5960693 3.5960999 5.6162415 8.473343 5.616089 13.558823c-1.5258789E-4 5.0854797 -2.02063 9.962616 -5.616913 13.558472l-233.76215 233.73393c-7.488907 7.4880066 -19.630463 7.4876404 -27.118927 -8.239746E-4l0 0l0 0c-7.4884567 -7.4884644 -7.4880905 -19.629272 8.163452E-4 -27.11728z" fill-rule="evenodd"/><path fill="#93c47d" d="m675.9265 269.9777l0 0c0 -79.52901 64.47101 -144.0 144.0 -144.0l0 0c38.191162 0 74.818115 15.171387 101.823364 42.17662c27.005249 27.005234 42.176636 63.632202 42.176636 101.82338l0 0c0 79.52899 -64.47101 144.0 -144.0 144.0l0 0c-79.52899 0 -144.0 -64.47101 -144.0 -144.0zm32.993286 0l0 0c0 61.307312 49.6994 111.006714 111.006714 111.006714c61.307312 0 111.006714 -49.6994 111.006714 -111.006714l0 0c0 -61.307327 -49.6994 -111.006714 -111.006714 -111.006714l0 0c-61.307312 0 -111.006714 49.699387 -111.006714 111.006714z" fill-rule="evenodd"/><path fill="#eeeeee" d="m440.0 224.00787l108.0 0l0 -18.0l36.0 36.0l-36.0 36.0l0 -18.0l-108.0 0z" fill-rule="evenodd"/><path fill="#eeeeee" d="m584.0 332.00787l-108.0 0l0 18.0l-36.0 -36.0l36.0 -36.0l0 18.0l108.0 0z" fill-rule="evenodd"/></g></svg>